# xmcd
#
# Track frame offsets:
#	183
#	13823
#	28455
#	45203
#	63018
#	73788
#	85898
#	98973
#	107183
#	121375
#
# Disc length: 1854 seconds
#
# Revision: 0
# Processed by: cddbd v1.4PL0 Copyright (c) Steve Scherf et al.
# Submitted via: dBpowerAMP V4.0
#
DISCID=83073c0a
DTITLE=T-Bone Walker - Welldone
DYEAR=1900
DGENRE=Blues
TTITLE0=Back on the Scene
TTITLE1=Good Boy
TTITLE2=No Do Right
TTITLE3=Please Come Back to Me
TTITLE4=Natural Ball
TTITLE5=Baby, She's a Hit!
TTITLE6=Treat Your Daddy Well
TTITLE7=Farther On up the Road
TTITLE8=Why Won't My Baby Treat Me Right?
TTITLE9=Afraid to Close My Eyes
EXTD=Collectables "Home Cooking" Series
EXTT0=
EXTT1=
EXTT2=
EXTT3=
EXTT4=
EXTT5=
EXTT6=
EXTT7=
EXTT8=
EXTT9=
PLAYORDER=
